<svg id="SvgjsSvg1027" width="288" height="288" xmlns="http://www.w3.org/2000/svg" version="1.1" xmlns:xlink="http://www.w3.org/1999/xlink" xmlns:svgjs="http://svgjs.com/svgjs"><defs id="SvgjsDefs1028"></defs><g id="SvgjsG1029"><svg xmlns="http://www.w3.org/2000/svg" viewBox="0 0 24 24" width="288" height="288"><g data-name="Layer 2" fill="#ffffff" class="color000 svgShape"><path d="M7 6a1 1 0 0 0 0-2H5a1 1 0 0 0-1 1v14a1 1 0 0 0 1 1h2a1 1 0 0 0 0-2H6V6zm13.82 5.42-2.82-4a1 1 0 0 0-1.39-.24 1 1 0 0 0-.24 1.4L18.09 11H10a1 1 0 0 0 0 2h8l-1.8 2.4a1 1 0 0 0 .2 1.4 1 1 0 0 0 .6.2 1 1 0 0 0 .8-.4l3-4a1 1 0 0 0 .02-1.18z" data-name="log-out" fill="#ffffff" class="color000 svgShape"></path></g></svg></g></svg>