<svg id="SvgjsSvg1011" width="288" height="288" xmlns="http://www.w3.org/2000/svg" version="1.1" xmlns:xlink="http://www.w3.org/1999/xlink" xmlns:svgjs="http://svgjs.com/svgjs"><defs id="SvgjsDefs1012"></defs><g id="SvgjsG1013"><svg xmlns="http://www.w3.org/2000/svg" viewBox="0 0 16.933 16.933" width="288" height="288"><path d="M3.424 281.121a.265.265 0 0 0-.211.404l2.187 3.651c-.35.218-.676.472-.97.757l-2.882-4.68a.265.265 0 0 0-.244-.13.265.265 0 0 0-.207.407l2.932 4.763a.265.265 0 0 0 .027.036 5.794 5.794 0 0 0-1.41 3.792 5.824 5.824 0 0 0 5.82 5.82 5.824 5.824 0 0 0 5.82-5.82 5.794 5.794 0 0 0-1.41-3.793l2.96-4.798a.265.265 0 1 0-.45-.28l-2.885 4.68a5.853 5.853 0 0 0-.965-.752.265.265 0 0 0 .004-.008l2.18-3.645a.265.265 0 0 0-.218-.404.265.265 0 0 0-.235.133l-2.181 3.644a.265.265 0 0 0-.011.02 5.778 5.778 0 0 0-1.004-.39l1.798-3.003a.265.265 0 0 0-.219-.404.265.265 0 0 0-.236.133L9.53 284.4a5.832 5.832 0 0 0-2.13 0 .265.265 0 0 0-.016-.027l-1.866-3.119a.265.265 0 0 0-.244-.133.265.265 0 0 0-.21.404l1.796 3.002c-.348.1-.682.231-1 .39l-2.196-3.663a.265.265 0 0 0-.241-.133zm5.042 3.707a5.289 5.289 0 0 1 5.291 5.293 5.286 5.286 0 0 1-5.29 5.291 5.286 5.286 0 0 1-5.291-5.29 5.288 5.288 0 0 1 5.29-5.294zm0 1.059a4.237 4.237 0 0 0-4.232 4.234 4.236 4.236 0 0 0 4.232 4.233 4.238 4.238 0 0 0 4.235-4.233 4.24 4.24 0 0 0-4.235-4.234zm0 .53a3.702 3.702 0 0 1 3.705 3.704 3.7 3.7 0 0 1-3.705 3.703 3.698 3.698 0 0 1-3.702-3.703 3.7 3.7 0 0 1 3.702-3.705zm.005 1.322a.265.265 0 0 0-.028.002.265.265 0 0 0-.213.146l-.564 1.143-1.264.185a.265.265 0 0 0-.147.452l.915.888-.215 1.258a.265.265 0 0 0 .383.28l1.128-.595 1.13.594a.265.265 0 0 0 .384-.279l-.217-1.258.914-.888a.265.265 0 0 0-.146-.452l-1.262-.183-.564-1.145a.265.265 0 0 0-.234-.147Zm-.005.863.39.787a.265.265 0 0 0 .198.146l.87.127-.63.612a.265.265 0 0 0-.075.234l.148.865-.777-.408a.265.265 0 0 0-.247 0l-.777.408.148-.865a.265.265 0 0 0-.076-.234l-.629-.612.87-.127a.265.265 0 0 0 .199-.146z" color="#000" font-family="sans-serif" font-weight="400" overflow="visible" transform="translate(0 -280.067)" style="line-height:normal;font-variant-ligatures:normal;font-variant-position:normal;font-variant-caps:normal;font-variant-numeric:normal;font-variant-alternates:normal;font-feature-settings:normal;text-indent:0;text-align:start;text-decoration-line:none;text-decoration-style:solid;text-decoration-color:#000;text-transform:none;text-orientation:mixed;shape-padding:0;isolation:auto;mix-blend-mode:normal" fill="#000000" class="color000 svgShape"></path></svg></g></svg>